<svg width="18" height="18" viewBox="0 0 18 18" fill="none" xmlns="http://www.w3.org/2000/svg">
<g clip-path="url(#clip0_2_1531)">
<path d="M8.85913 18H7.45288C6.75499 18 6.18726 17.4323 6.18726 16.7344V8.01562C6.18726 7.31774 6.75499 6.75 7.45288 6.75H8.85913C9.55702 6.75 10.1248 7.31774 10.1248 8.01562V16.7344C10.1248 17.4323 9.55698 18 8.85913 18Z" fill="#FF82AC"/>
<path d="M3.51538 18H2.10913C1.41124 18 0.843506 17.4323 0.843506 16.7344V10.8281C0.843506 10.1302 1.41124 9.5625 2.10913 9.5625H3.51538C4.21327 9.5625 4.78101 10.1302 4.78101 10.8281V16.7344C4.78101 17.4323 4.21324 18 3.51538 18Z" fill="#FF82AC"/>
<path d="M14.2031 18H12.7969C12.099 18 11.5313 17.4323 11.5313 16.7344V5.0625H10.7585C10.3973 5.0625 10.079 4.85859 9.92807 4.53038C9.77711 4.20216 9.82938 3.82788 10.0645 3.55356C10.0672 3.55043 10.0699 3.5473 10.0727 3.54424L13.0811 0.187102C13.1878 0.0680273 13.3401 0 13.5 0C13.6599 0 13.8122 0.0680273 13.9189 0.187102L16.9274 3.54424C16.9301 3.5473 16.9329 3.55043 16.9355 3.55356C17.1707 3.82785 17.2229 4.20216 17.072 4.53038C16.921 4.85859 16.6028 5.0625 16.2415 5.0625H15.4688V16.7344C15.4688 17.4323 14.901 18 14.2031 18Z" fill="#FF82AC"/>
</g>
<defs>
<clipPath id="clip0_2_1531">
<rect width="18" height="18" fill="white"/>
</clipPath>
</defs>
</svg>
