<svg width="18" height="18" viewBox="0 0 18 18" fill="none" xmlns="http://www.w3.org/2000/svg">
<g clip-path="url(#clip0_2_1544)">
<path d="M17.9861 3.13469C17.9095 2.26465 16.8533 1.87726 16.2351 2.49559L15.352 3.37868C15.1546 3.57612 14.8304 3.57935 14.6293 3.38585C14.4208 3.18507 14.4316 2.83917 14.6366 2.63414L15.5052 1.76557C16.1229 1.14791 15.7371 0.091322 14.8663 0.0146462C12.4997 -0.193444 10.6225 2.00758 11.2501 4.34154L0.499207 15.0925C-0.166512 15.7581 -0.166618 16.8357 0.499207 17.5015C1.16341 18.1657 2.24408 18.1658 2.90829 17.5015L13.6564 6.75336C15.9625 7.38041 18.1964 5.52293 17.9861 3.13469Z" fill="#16DBCC"/>
<path d="M1.12477 4.12945C1.14997 4.17916 1.18288 4.22458 1.22229 4.26399L2.74835 5.79002C2.9543 5.99597 3.28818 5.99593 3.49409 5.79002L4.27016 5.01395L5.75228 6.49606L4.16775 8.08056C3.75716 8.49188 3.75751 9.16087 4.1681 9.57181L4.33439 9.7381L9.74258 4.33026L9.57629 4.16397C9.16356 3.75198 8.49763 3.75138 8.08433 4.16397L6.49801 5.75029L5.0159 4.26818L5.79197 3.4921C5.99792 3.28619 5.99792 2.95228 5.79197 2.74637L4.26594 1.22031C4.22611 1.18044 4.18013 1.14725 4.12978 1.12197L2.17924 0.142099C1.97604 0.0400055 1.73044 0.0796266 1.56963 0.240431L0.236861 1.57317C0.0756349 1.7344 0.0362951 1.98095 0.139338 2.18436L1.12477 4.12945Z" fill="#16DBCC"/>
<path d="M12.8294 9.07202L9.07556 12.8258L13.3866 17.1379C14.4236 18.175 16.1026 18.1753 17.14 17.1379C18.175 16.103 18.175 14.419 17.14 13.3844L12.8294 9.07202ZM15.9184 15.9152C15.7138 16.1205 15.379 16.1215 15.1728 15.9152L12.1797 12.9222C11.9737 12.7161 11.9737 12.3822 12.1797 12.1765C12.3857 11.9705 12.7197 11.9705 12.9253 12.1765L15.9184 15.1696C16.1244 15.3756 16.1244 15.7092 15.9184 15.9152Z" fill="#16DBCC"/>
</g>
<defs>
<clipPath id="clip0_2_1544">
<rect width="18" height="18" fill="white"/>
</clipPath>
</defs>
</svg>
