<svg width="18" height="18" viewBox="0 0 18 18" fill="none" xmlns="http://www.w3.org/2000/svg">
<path d="M9.0001 7.1281C9.35445 7.1281 9.64384 7.41674 9.64384 7.77109C9.64384 8.09443 9.90664 8.3565 10.23 8.3565C10.5526 8.3565 10.8154 8.09443 10.8154 7.77109C10.8154 6.97676 10.2979 6.30645 9.58552 6.06136V5.72916C9.58552 5.40656 9.32345 5.14301 9.0001 5.14301C8.67602 5.14301 8.41395 5.40656 8.41395 5.72916V6.06136C7.70156 6.30645 7.18555 6.97676 7.18555 7.77109C7.18555 8.77286 7.99907 9.58639 9.0001 9.58639C9.35445 9.58639 9.64384 9.87577 9.64384 10.2301C9.64384 10.5852 9.35445 10.8739 9.0001 10.8739C8.64576 10.8739 8.35711 10.5852 8.35711 10.2301C8.35711 9.90678 8.0943 9.64397 7.77096 9.64397C7.44688 9.64397 7.18555 9.90678 7.18555 10.2301C7.18555 11.0244 7.70156 11.694 8.41395 11.9391V12.2713C8.41395 12.5954 8.67602 12.8582 9.0001 12.8582C9.32345 12.8582 9.58552 12.5954 9.58552 12.2713V11.9391C10.2979 11.694 10.8154 11.0244 10.8154 10.2301C10.8154 9.22909 10.0011 8.41482 9.0001 8.41482C8.64576 8.41482 8.35711 8.12618 8.35711 7.77109C8.35711 7.41674 8.64576 7.1281 9.0001 7.1281ZM13.9086 12.2536C14.1957 12.4049 14.5493 12.2949 14.6999 12.01C15.1872 11.0894 15.4441 10.0485 15.4441 9.00024C15.4441 5.4479 12.5524 2.55701 9.0001 2.55701C5.44703 2.55701 2.55613 5.4479 2.55613 9.00024C2.55613 12.5533 5.44703 15.4442 9.0001 15.4442C10.0329 15.4442 11.059 15.1947 11.9678 14.7215C12.2549 14.5731 12.3664 14.218 12.2173 13.9316C12.0682 13.6459 11.7146 13.5322 11.4267 13.6821C10.6744 14.0748 9.85718 14.2734 9.0001 14.2734C6.09297 14.2734 3.72696 11.9081 3.72696 9.00024C3.72696 6.09384 6.09297 3.72783 9.0001 3.72783C11.9072 3.72783 14.2732 6.09384 14.2732 9.00024C14.2732 9.85879 14.0621 10.71 13.6649 11.4615C13.5129 11.7479 13.6221 12.1023 13.9086 12.2536ZM9.0001 0.212402C7.30292 0.212402 5.6552 0.698155 4.2356 1.61577C3.96319 1.79147 3.88568 2.15393 4.06138 2.4256C4.23781 2.69727 4.5988 2.77404 4.87195 2.59982C6.10035 1.80549 7.52956 1.3847 9.0001 1.3847C13.1999 1.3847 16.6156 4.80121 16.6156 9.00024C16.6156 13.2 13.1999 16.6165 9.0001 16.6165C4.80034 16.6165 1.38383 13.2 1.38383 9.00024C1.38383 7.54372 1.7965 6.12706 2.57828 4.9053C2.7525 4.63216 2.67277 4.26969 2.39963 4.09547C2.12723 3.92125 1.76476 4.00097 1.59127 4.27338C0.689162 5.68413 0.212269 7.32004 0.212269 9.00024C0.212269 13.8467 4.15365 17.7881 9.0001 17.7881C13.8458 17.7881 17.7879 13.8467 17.7879 9.00024C17.7879 4.15526 13.8458 0.212402 9.0001 0.212402Z" fill="#16DBCC"/>
</svg>
