<svg width="15" height="18" viewBox="0 0 15 18" fill="none" xmlns="http://www.w3.org/2000/svg">
<path d="M13.425 4.98755C13.4151 3.8945 12.9744 2.84948 12.1985 2.07947C11.4227 1.30946 10.3744 0.876653 9.28125 0.875052H3.25C3.1002 0.873124 2.95468 0.925072 2.83996 1.02143C2.72525 1.1178 2.64896 1.25216 2.625 1.40005L0.487503 14.8063C0.474148 14.8951 0.480075 14.9857 0.504881 15.072C0.529686 15.1582 0.572788 15.2382 0.631253 15.3063C0.689341 15.376 0.761923 15.4323 0.843952 15.4712C0.925981 15.51 1.01549 15.5305 1.10625 15.5313H3.6875L3.55 16.4001C3.5354 16.4901 3.54068 16.5822 3.56549 16.67C3.59029 16.7578 3.634 16.8391 3.69356 16.9082C3.75312 16.9773 3.82708 17.0325 3.91026 17.07C3.99343 17.1074 4.08379 17.1262 4.175 17.1251H7.08125C7.23015 17.1272 7.37492 17.0761 7.48951 16.981C7.60409 16.8859 7.68095 16.753 7.70625 16.6063L8.33125 12.7876H10.3C11.5322 12.7826 12.7124 12.29 13.5826 11.4175C14.4527 10.545 14.9421 9.36355 14.9438 8.1313V7.9563C14.9431 7.37667 14.8052 6.80543 14.5412 6.2894C14.2772 5.77337 13.8947 5.32724 13.425 4.98755ZM3.78125 2.12505H9.28125C9.93697 2.12706 10.5727 2.35124 11.0846 2.76101C11.5965 3.17077 11.9544 3.74194 12.1 4.3813C11.8296 4.31789 11.5527 4.28642 11.275 4.28755H6.0625C5.9127 4.28562 5.76718 4.33757 5.65246 4.43393C5.53775 4.5303 5.46146 4.66466 5.4375 4.81255L5.06875 7.12505C5.04223 7.29081 5.08264 7.46032 5.1811 7.59628C5.27956 7.73225 5.42799 7.82353 5.59375 7.85005C5.75951 7.87657 5.92902 7.83616 6.06498 7.7377C6.20095 7.63925 6.29223 7.49081 6.31875 7.32505L6.60625 5.52505H11.2875C11.5871 5.52662 11.8838 5.58385 12.1625 5.6938C12.0437 6.67221 11.5716 7.57354 10.8351 8.2284C10.0985 8.88327 9.14809 9.24658 8.1625 9.25005H5.2625C5.11361 9.24789 4.96883 9.29895 4.85425 9.39406C4.73966 9.48916 4.6628 9.62206 4.6375 9.7688L3.875 14.2813H1.8375L3.78125 2.12505ZM13.6938 8.1313C13.6921 9.03203 13.3344 9.89558 12.6987 10.5337C12.063 11.1717 11.2007 11.5326 10.3 11.5376H7.8C7.65111 11.5354 7.50633 11.5865 7.39175 11.6816C7.27716 11.7767 7.2003 11.9096 7.175 12.0563L6.55 15.8751H4.9L5.0375 15.0063L5.7875 10.5126H8.15C9.31679 10.5091 10.4497 10.1198 11.3721 9.40539C12.2946 8.69092 12.9549 7.6914 13.25 6.56255C13.5401 6.96927 13.6953 7.45673 13.6938 7.9563V8.1313Z" fill="#396AFF"/>
</svg>
