<svg width="12" height="12" viewBox="0 0 12 12" fill="none" xmlns="http://www.w3.org/2000/svg">
<g clip-path="url(#clip0_2_1784)">
<path d="M11.6697 3.33091L10.5892 4.41138C10.4791 4.52153 10.301 4.52153 10.1908 4.41138L7.58924 1.80981C7.47908 1.69966 7.47908 1.52153 7.58924 1.41138L8.66971 0.330908C9.10799 -0.107373 9.82049 -0.107373 10.2611 0.330908L11.6697 1.7395C12.1103 2.17778 12.1103 2.89028 11.6697 3.33091ZM6.66112 2.3395L0.506427 8.49419L0.00955207 11.3418C-0.0584167 11.7262 0.27674 12.059 0.661115 11.9934L3.50877 11.4942L9.66346 5.3395C9.77361 5.22935 9.77361 5.05122 9.66346 4.94106L7.0619 2.3395C6.9494 2.22935 6.77127 2.22935 6.66112 2.3395ZM2.90877 7.96685C2.77986 7.83794 2.77986 7.63169 2.90877 7.50278L6.51815 3.89341C6.64705 3.7645 6.8533 3.7645 6.98221 3.89341C7.11111 4.02232 7.11111 4.22856 6.98221 4.35747L3.37283 7.96685C3.24393 8.09575 3.03768 8.09575 2.90877 7.96685ZM2.06268 9.93794H3.18768V10.7887L1.67596 11.0536L0.947052 10.3247L1.2119 8.81294H2.06268V9.93794Z" fill="currentColor"/>
</g>
<defs>
<clipPath id="clip0_2_1784">
<rect width="12" height="12" fill="currentColor"/>
</clipPath>
</defs>
</svg>
