<svg width="20" height="20" viewBox="0 0 20 20" fill="none" xmlns="http://www.w3.org/2000/svg">
<g clip-path="url(#clip0_2_1108)">
<path d="M4.16667 18.3334C4.1672 18.7753 4.34296 19.1989 4.65541 19.5113C4.96785 19.8238 5.39147 19.9996 5.83334 20.0001H14.1667C14.6085 19.9996 15.0322 19.8238 15.3446 19.5113C15.6571 19.1989 15.8328 18.7753 15.8333 18.3334V17.6042H4.16667V18.3334Z" fill="currentColor"/>
<path d="M15.8333 1.66667C15.8328 1.2248 15.6571 0.801181 15.3446 0.488734C15.0322 0.176287 14.6085 0.000523784 14.1667 0L5.83334 0C5.39147 0.000523784 4.96785 0.176287 4.65541 0.488734C4.34296 0.801181 4.1672 1.2248 4.16667 1.66667V2.5H15.8333V1.66667Z" fill="currentColor"/>
<path d="M19.7678 5.36052L17.2678 2.75635L16.0655 3.91051L17.1115 5.0001H15.8333V6.66677H17.2014L16.0901 7.73177L17.2432 8.9351L19.7432 6.53927C19.8223 6.46351 19.8856 6.37291 19.9297 6.27266C19.9737 6.1724 19.9975 6.06445 19.9998 5.95498C20.0021 5.84551 19.9828 5.73667 19.943 5.63467C19.9032 5.53266 19.8436 5.4395 19.7678 5.36052Z" fill="currentColor"/>
<path d="M13.3333 4.99992H15.8333V3.33325H4.16667V13.3333H6.66667V14.9999H4.16667V16.6666H15.8333V6.66659H13.3333V4.99992ZM12.5 8.33325H9.58334C9.47283 8.33325 9.36685 8.37715 9.28871 8.45529C9.21057 8.53343 9.16667 8.63941 9.16667 8.74992C9.16667 8.86043 9.21057 8.96641 9.28871 9.04455C9.36685 9.12269 9.47283 9.16659 9.58334 9.16659H10.4167C10.9333 9.16607 11.4317 9.35754 11.8151 9.70383C12.1986 10.0501 12.4396 10.5265 12.4916 11.0405C12.5435 11.5546 12.4025 12.0696 12.0961 12.4855C11.7897 12.9015 11.3397 13.1888 10.8333 13.2916V14.1666H9.16667V13.3333H7.50001V11.6666H10.4167C10.5272 11.6666 10.6332 11.6227 10.7113 11.5445C10.7894 11.4664 10.8333 11.3604 10.8333 11.2499C10.8333 11.1394 10.7894 11.0334 10.7113 10.9553C10.6332 10.8772 10.5272 10.8333 10.4167 10.8333H9.58334C9.06669 10.8338 8.56828 10.6423 8.18487 10.296C7.80145 9.94973 7.56038 9.47332 7.50846 8.95929C7.45654 8.44526 7.59746 7.93027 7.90389 7.51431C8.21031 7.09834 8.66036 6.81106 9.16667 6.70825V5.83325H10.8333V6.66659H12.5V8.33325Z" fill="currentColor"/>
<path d="M2.79865 13.3333L3.9099 12.2683L2.75677 11.0649L0.256772 13.4608C0.177719 13.5365 0.11437 13.6271 0.0703476 13.7274C0.0263249 13.8276 0.00249093 13.9356 0.000207884 14.0451C-0.00207516 14.1545 0.0172375 14.2634 0.057042 14.3654C0.0968466 14.4674 0.156363 14.5605 0.232188 14.6395L2.73219 17.2437L3.93448 16.0895L2.88854 14.9999H4.16667V13.3333H2.79865Z" fill="currentColor"/>
</g>
<defs>
<clipPath id="clip0_2_1108">
<rect width="20" height="20" fill="white"/>
</clipPath>
</defs>
</svg>
