<svg width="21" height="16" viewBox="0 0 21 16" fill="none" xmlns="http://www.w3.org/2000/svg">
<path d="M14.6475 15.9727H3.07129C2.4517 15.972 1.85767 15.7256 1.41955 15.2875C0.981439 14.8494 0.735021 14.2553 0.734375 13.6357V6.72705C0.735021 6.10746 0.981439 5.51343 1.41955 5.07532C1.85767 4.6372 2.4517 4.39078 3.07129 4.39014H14.6475C15.2671 4.39078 15.8611 4.6372 16.2992 5.07532C16.7373 5.51343 16.9837 6.10746 16.9844 6.72705V13.6357C16.9837 14.2553 16.7373 14.8494 16.2992 15.2875C15.8611 15.7256 15.2671 15.972 14.6475 15.9727ZM3.07129 5.85498C2.84008 5.85524 2.61842 5.9472 2.45493 6.11069C2.29144 6.27418 2.19948 6.49584 2.19922 6.72705V13.6357C2.19948 13.867 2.29144 14.0886 2.45493 14.2521C2.61842 14.4156 2.84008 14.5076 3.07129 14.5078H14.6475C14.8787 14.5076 15.1003 14.4156 15.2638 14.2521C15.4273 14.0886 15.5193 13.867 15.5195 13.6357V6.72705C15.5193 6.49584 15.4273 6.27418 15.2638 6.11069C15.1003 5.9472 14.8787 5.85524 14.6475 5.85498H3.07129Z" fill="#FFBB38"/>
<path d="M17.9297 12.0283H16.2519C16.0577 12.0283 15.8714 11.9512 15.734 11.8138C15.5967 11.6764 15.5195 11.4901 15.5195 11.2959C15.5195 11.1016 15.5967 10.9154 15.734 10.778C15.8714 10.6406 16.0577 10.5635 16.2519 10.5635H17.9297C18.1607 10.563 18.3821 10.4709 18.5454 10.3074C18.7087 10.144 18.8005 9.92244 18.8008 9.69141V2.78271C18.8006 2.55159 18.7089 2.32995 18.5456 2.16638C18.3823 2.00282 18.1608 1.91067 17.9297 1.91016H6.35349C6.12228 1.91041 5.90062 2.00238 5.73713 2.16587C5.57364 2.32935 5.48168 2.55102 5.48142 2.78223V5.12207C5.48142 5.31632 5.40426 5.50261 5.2669 5.63997C5.12955 5.77733 4.94325 5.85449 4.749 5.85449C4.55475 5.85449 4.36846 5.77733 4.2311 5.63997C4.09374 5.50261 4.01658 5.31632 4.01658 5.12207V2.78271C4.0171 2.16304 4.26346 1.56889 4.70159 1.13067C5.13972 0.692443 5.73382 0.445959 6.35349 0.445312H17.9297C18.5492 0.446217 19.143 0.692816 19.5809 1.13101C20.0189 1.5692 20.2651 2.16321 20.2656 2.78271V9.69141C20.265 10.3108 20.0187 10.9047 19.5808 11.3428C19.1429 11.7809 18.5491 12.0274 17.9297 12.0283Z" fill="#FFBB38"/>
<path d="M16.252 10.7378H1.4668C1.27255 10.7378 1.08625 10.6606 0.948896 10.5233C0.811541 10.3859 0.734375 10.1996 0.734375 10.0054V7.54541C0.734375 7.35116 0.811541 7.16487 0.948896 7.02751C1.08625 6.89015 1.27255 6.81299 1.4668 6.81299H16.252C16.4462 6.81299 16.6325 6.89015 16.7699 7.02751C16.9072 7.16487 16.9844 7.35116 16.9844 7.54541V10.0054C16.9844 10.1996 16.9072 10.3859 16.7699 10.5233C16.6325 10.6606 16.4462 10.7378 16.252 10.7378ZM2.19922 9.27295H15.5195V8.27783H2.19922V9.27295Z" fill="#FFBB38"/>
</svg>
